M48
; DRILL file KiCad 10.0.3 date 2026-06-21T14:58:52
; FORMAT={-:-/ absolute / metric / decimal}
; #@! TF.CreationDate,2026-06-21T14:58:52-04:00
; #@! TF.GenerationSoftware,Kicad,Pcbnew,10.0.3
; #@! TF.FileFunction,Plated,1,2,PTH
FMAT,2
METRIC
; #@! TA.AperFunction,Plated,PTH,ComponentDrill
T1C0.600
; #@! TA.AperFunction,Plated,PTH,ComponentDrill
T2C0.950
; #@! TA.AperFunction,Plated,PTH,ComponentDrill
T3C1.000
%
G90
G05
T1
X131.5Y-98.5
X131.5Y-103.5
X131.5Y-114.0
X131.5Y-119.0
X141.5Y-98.5
X141.5Y-103.5
X141.5Y-114.0
X141.5Y-119.0
T2
X125.0Y-97.0
X125.0Y-99.5
X125.0Y-102.0
X125.0Y-108.0
X125.0Y-110.5
X125.0Y-113.0
T3
X117.42Y-83.66
X119.96Y-83.66
X122.5Y-83.66
X124.945Y-119.25
X124.945Y-121.75
X144.5Y-70.46
X144.5Y-73.0
X144.5Y-75.54
X144.5Y-78.08
X144.5Y-80.62
X150.46Y-70.5
X150.46Y-73.04
X150.46Y-75.58
X150.46Y-78.12
X150.46Y-80.66
X150.46Y-83.2
X150.46Y-85.74
X150.46Y-88.28
X150.46Y-90.82
X150.46Y-93.36
X150.46Y-95.9
X150.46Y-98.44
X150.46Y-100.98
X150.46Y-103.52
X150.46Y-106.06
X150.46Y-108.6
X150.46Y-111.14
X150.46Y-113.68
X150.46Y-116.22
X150.46Y-118.76
X153.0Y-70.5
X153.0Y-73.04
X153.0Y-75.58
X153.0Y-78.12
X153.0Y-80.66
X153.0Y-83.2
X153.0Y-85.74
X153.0Y-88.28
X153.0Y-90.82
X153.0Y-93.36
X153.0Y-95.9
X153.0Y-98.44
X153.0Y-100.98
X153.0Y-103.52
X153.0Y-106.06
X153.0Y-108.6
X153.0Y-111.14
X153.0Y-113.68
X153.0Y-116.22
X153.0Y-118.76
M30
